<svg width="100%" viewBox="0 0 800 1080" xmlns="http://www.w3.org/2000/svg" role="img">
  <title>NEST Skill Cascade Map v1.2 · 33-skill state · 052026</title>
  <desc>33 NEST-built skills arranged by ARMS session phase (CONTACT, STORY, TELL-ING, SHEET) with meta-dates as apex always-on trigger. Updates v1.1 cascade-map from 042926 by adding 5 skills: btw + box-in-box + hypercampus alias + remememento + ultrareview CANDIDATE.</desc>

  <defs>
    <marker id="arrow" viewBox="0 0 10 10" refX="8" refY="5" markerWidth="6" markerHeight="6" orient="auto-start-reverse">
      <path d="M2 1L8 5L2 9" fill="none" stroke="#EF9F27" stroke-width="1.5" stroke-linecap="round" stroke-linejoin="round"/>
    </marker>
    <style>
      .apex-rect { fill: #633806; stroke: #EF9F27; stroke-width: 1; }
      .apex-title { fill: #FAC775; font: 500 16px 'IBM Plex Mono', -apple-system, system-ui, sans-serif; text-anchor: middle; }
      .apex-meta { fill: #EF9F27; font: 400 11px 'IBM Plex Mono', -apple-system, system-ui, sans-serif; text-anchor: middle; }

      .phase-rect { fill: #085041; stroke: #5DCAA5; stroke-width: 0.5; }
      .phase-title { fill: #9FE1CB; font: 500 13px 'IBM Plex Mono', -apple-system, system-ui, sans-serif; text-anchor: middle; }

      .skill-rect { fill: #1a2620; stroke: rgba(116, 201, 213, 0.4); stroke-width: 0.5; }
      .skill-rect-new { fill: #1a2620; stroke: #EF9F27; stroke-width: 0.8; stroke-dasharray: 2,2; }
      .skill-rect-federal { fill: #1a2620; stroke: #C9A84C; stroke-width: 0.8; }
      .skill-name { fill: #B8BFCC; font: 400 10px 'IBM Plex Mono', -apple-system, system-ui, sans-serif; text-anchor: middle; }
      .skill-name-new { fill: #FAC775; font: 400 10px 'IBM Plex Mono', -apple-system, system-ui, sans-serif; text-anchor: middle; }

      .conn-line { fill: none; stroke: #EF9F27; stroke-width: 0.6; opacity: 0.55; }

      .legend-text { fill: #8A93A5; font: 400 10px 'IBM Plex Mono', sans-serif; }
      .legend-new { fill: #FAC775; }
      .legend-federal { fill: #C9A84C; }

      .footer-text { fill: #5DCAA5; font: 400 10px 'IBM Plex Mono', sans-serif; text-anchor: middle; }
    </style>
  </defs>

  <!-- APEX · meta-dates · always-on -->
  <g>
    <rect x="280" y="20" width="240" height="56" rx="12" class="apex-rect"/>
    <text x="400" y="44" class="apex-title">meta-dates</text>
    <text x="400" y="62" class="apex-meta">apex · always-on · ambient routing</text>
  </g>

  <!-- Apex-to-phase connectors -->
  <line x1="320" y1="76" x2="120" y2="118" class="conn-line" marker-end="url(#arrow)"/>
  <line x1="360" y1="76" x2="280" y2="118" class="conn-line" marker-end="url(#arrow)"/>
  <line x1="440" y1="76" x2="500" y2="118" class="conn-line" marker-end="url(#arrow)"/>
  <line x1="480" y1="76" x2="680" y2="118" class="conn-line" marker-end="url(#arrow)"/>

  <!-- PHASE HEADERS · ARMS · 4 columns -->
  <g>
    <rect x="40" y="110" width="170" height="36" rx="8" class="phase-rect"/>
    <text x="125" y="132" class="phase-title">CONTACT</text>
  </g>
  <g>
    <rect x="220" y="110" width="170" height="36" rx="8" class="phase-rect"/>
    <text x="305" y="132" class="phase-title">STORY</text>
  </g>
  <g>
    <rect x="400" y="110" width="170" height="36" rx="8" class="phase-rect"/>
    <text x="485" y="132" class="phase-title">TELL-ING</text>
  </g>
  <g>
    <rect x="580" y="110" width="170" height="36" rx="8" class="phase-rect"/>
    <text x="665" y="132" class="phase-title">SHEET</text>
  </g>

  <!-- CONTACT phase skills (column x=40-210) -->
  <g>
    <rect x="50" y="160" width="150" height="26" rx="4" class="skill-rect"/>
    <text x="125" y="177" class="skill-name">/boot-polish</text>
  </g>
  <g>
    <rect x="50" y="192" width="150" height="26" rx="4" class="skill-rect"/>
    <text x="125" y="209" class="skill-name">/ican</text>
  </g>
  <g>
    <rect x="50" y="224" width="150" height="26" rx="4" class="skill-rect"/>
    <text x="125" y="241" class="skill-name">/trip_briefcase</text>
  </g>
  <g>
    <rect x="50" y="256" width="150" height="26" rx="4" class="skill-rect"/>
    <text x="125" y="273" class="skill-name">/stan_briefcase</text>
  </g>
  <g>
    <rect x="50" y="288" width="150" height="26" rx="4" class="skill-rect"/>
    <text x="125" y="305" class="skill-name">/context-alignment</text>
  </g>

  <!-- STORY phase skills (column x=220-390) -->
  <g>
    <rect x="230" y="160" width="150" height="26" rx="4" class="skill-rect"/>
    <text x="305" y="177" class="skill-name">/session-poem</text>
  </g>
  <g>
    <rect x="230" y="192" width="150" height="26" rx="4" class="skill-rect"/>
    <text x="305" y="209" class="skill-name">/living-map</text>
  </g>
  <g>
    <rect x="230" y="224" width="150" height="26" rx="4" class="skill-rect"/>
    <text x="305" y="241" class="skill-name">/dtad</text>
  </g>
  <g>
    <rect x="230" y="256" width="150" height="26" rx="4" class="skill-rect"/>
    <text x="305" y="273" class="skill-name">/triptective</text>
  </g>
  <g>
    <rect x="230" y="288" width="150" height="26" rx="4" class="skill-rect"/>
    <text x="305" y="305" class="skill-name">/ghosts</text>
  </g>
  <g>
    <rect x="230" y="320" width="150" height="26" rx="4" class="skill-rect"/>
    <text x="305" y="337" class="skill-name">/photon-split</text>
  </g>
  <g>
    <rect x="230" y="352" width="150" height="26" rx="4" class="skill-rect"/>
    <text x="305" y="369" class="skill-name">/survival-toolkit</text>
  </g>
  <g>
    <rect x="230" y="384" width="150" height="26" rx="4" class="skill-rect-new"/>
    <text x="305" y="401" class="skill-name-new">/remememento ★</text>
  </g>
  <g>
    <rect x="230" y="416" width="150" height="26" rx="4" class="skill-rect"/>
    <text x="305" y="433" class="skill-name">/hypercampus-builder</text>
  </g>
  <g>
    <rect x="230" y="448" width="150" height="26" rx="4" class="skill-rect-new"/>
    <text x="305" y="465" class="skill-name-new">/hypercampus ★ (alias)</text>
  </g>
  <g>
    <rect x="230" y="480" width="150" height="26" rx="4" class="skill-rect"/>
    <text x="305" y="497" class="skill-name">/ilevel-grid-sifter</text>
  </g>
  <g>
    <rect x="230" y="512" width="150" height="26" rx="4" class="skill-rect"/>
    <text x="305" y="529" class="skill-name">/formulacaster</text>
  </g>

  <!-- TELL-ING phase skills (column x=400-570) -->
  <g>
    <rect x="410" y="160" width="150" height="26" rx="4" class="skill-rect-new"/>
    <text x="485" y="177" class="skill-name-new">/btw ★</text>
  </g>
  <g>
    <rect x="410" y="192" width="150" height="26" rx="4" class="skill-rect-federal"/>
    <text x="485" y="209" class="skill-name">/atomic-commit ◆</text>
  </g>
  <g>
    <rect x="410" y="224" width="150" height="26" rx="4" class="skill-rect"/>
    <text x="485" y="241" class="skill-name">/skill-upload</text>
  </g>
  <g>
    <rect x="410" y="256" width="150" height="26" rx="4" class="skill-rect"/>
    <text x="485" y="273" class="skill-name">/heircor-visual</text>
  </g>
  <g>
    <rect x="410" y="288" width="150" height="26" rx="4" class="skill-rect"/>
    <text x="485" y="305" class="skill-name">/waywood-lore</text>
  </g>
  <g>
    <rect x="410" y="320" width="150" height="26" rx="4" class="skill-rect"/>
    <text x="485" y="337" class="skill-name">/niaprint</text>
  </g>
  <g>
    <rect x="410" y="352" width="150" height="26" rx="4" class="skill-rect"/>
    <text x="485" y="369" class="skill-name">/na-publish</text>
  </g>
  <g>
    <rect x="410" y="384" width="150" height="26" rx="4" class="skill-rect"/>
    <text x="485" y="401" class="skill-name">/na-pdf</text>
  </g>
  <g>
    <rect x="410" y="416" width="150" height="26" rx="4" class="skill-rect"/>
    <text x="485" y="433" class="skill-name">/na-pdf-style</text>
  </g>
  <g>
    <rect x="410" y="448" width="150" height="26" rx="4" class="skill-rect"/>
    <text x="485" y="465" class="skill-name">/router-flash</text>
  </g>
  <g>
    <rect x="410" y="480" width="150" height="26" rx="4" class="skill-rect"/>
    <text x="485" y="497" class="skill-name">/dex-mobile</text>
  </g>

  <!-- SHEET phase skills (column x=580-750) -->
  <g>
    <rect x="590" y="160" width="150" height="26" rx="4" class="skill-rect"/>
    <text x="665" y="177" class="skill-name">/session-close</text>
  </g>
  <g>
    <rect x="590" y="192" width="150" height="26" rx="4" class="skill-rect"/>
    <text x="665" y="209" class="skill-name">/oo-daily</text>
  </g>
  <g>
    <rect x="590" y="224" width="150" height="26" rx="4" class="skill-rect-new"/>
    <text x="665" y="241" class="skill-name-new">/ultrareview ★</text>
  </g>

  <!-- Cross-cutting (Federal Standard) -->
  <g>
    <rect x="290" y="600" width="220" height="40" rx="6" class="skill-rect-federal"/>
    <text x="400" y="615" class="skill-name" style="font-weight:500;">/box-in-box ◆</text>
    <text x="400" y="630" class="legend-text" style="text-anchor:middle;font-size:9px;">cross-cutting · L3 Federal-Standard trigger</text>
  </g>

  <!-- Cross-cutting connectors -->
  <line x1="320" y1="600" x2="160" y2="554" class="conn-line"/>
  <line x1="380" y1="600" x2="320" y2="554" class="conn-line"/>
  <line x1="420" y1="600" x2="480" y2="554" class="conn-line"/>
  <line x1="480" y1="600" x2="640" y2="554" class="conn-line"/>

  <!-- Legend -->
  <g transform="translate(50, 700)">
    <text x="0" y="0" class="legend-text" style="font-size:12px;font-weight:500;fill:#9FE1CB;">LEGEND</text>

    <rect x="0" y="15" width="20" height="14" rx="2" class="skill-rect"/>
    <text x="28" y="26" class="legend-text">Established · 042926 cascade-map v1.1 (28 skills)</text>

    <rect x="0" y="38" width="20" height="14" rx="2" class="skill-rect-new"/>
    <text x="28" y="49" class="legend-text legend-new">★ New since 042926 · added Pass-2 update 052026 (5 skills)</text>

    <rect x="0" y="61" width="20" height="14" rx="2" class="skill-rect-federal"/>
    <text x="28" y="72" class="legend-text legend-federal">◆ Federal-Standard-bound · L3 trigger for L2 canon</text>

    <line x1="0" y1="90" x2="20" y2="90" class="conn-line" marker-end="url(#arrow)"/>
    <text x="28" y="94" class="legend-text">meta-dates cascade · always-on apex trigger</text>
  </g>

  <!-- Footer -->
  <g transform="translate(400, 820)">
    <text x="0" y="0" class="footer-text" style="font-size:11px;font-weight:500;">NEST.02 SKILL CASCADE MAP · v1.2 · 052026</text>
    <text x="0" y="18" class="footer-text" style="font-size:9px;">33 NEST-built skills arranged by ARMS session phase</text>
    <text x="0" y="32" class="footer-text" style="font-size:9px;">Updates v1.1 (Trip 042926 · 28 skills) by adding 5 new skills since</text>
    <text x="0" y="46" class="footer-text" style="font-size:9px;">btw + box-in-box + hypercampus alias + remememento + ultrareview CANDIDATE</text>
    <text x="0" y="64" class="footer-text" style="font-size:9px;opacity:0.65;">Frequency-based sizing reserves for next corpus analysis pass</text>
    <text x="0" y="78" class="footer-text" style="font-size:9px;opacity:0.65;">Industry-axis (22 inheritance-batch skills) not visualized · see /skills page below</text>
  </g>

  <!-- Phase column dividers (subtle) -->
  <line x1="215" y1="100" x2="215" y2="560" stroke="rgba(93,202,165,0.08)" stroke-width="0.5"/>
  <line x1="395" y1="100" x2="395" y2="560" stroke="rgba(93,202,165,0.08)" stroke-width="0.5"/>
  <line x1="575" y1="100" x2="575" y2="560" stroke="rgba(93,202,165,0.08)" stroke-width="0.5"/>
</svg>
